<?xml version="1.0" encoding="utf-8"?>
<!-- Generator: Adobe Illustrator 19.0.0, SVG Export Plug-In . SVG Version: 6.00 Build 0)  -->
<svg version="1.1" id="Layer_1" xmlns="http://www.w3.org/2000/svg" xmlns:xlink="http://www.w3.org/1999/xlink" x="0px" y="0px"
	 viewBox="131 -131 512 512" style="enable-background:new 131 -131 512 512;" xml:space="preserve">
<g id="XMLID_2_">
	<path id="XMLID_6_" d="M643,189.2v54.9c0,2.8-0.9,4.7-2.8,6.5c-1.9,1.9-3.7,2.8-6.5,2.8H240.8v54.9c0,2.8-0.9,4.7-2.8,6.5
		c-1.9,1.9-3.7,2.8-6.5,2.8c-1.9,0-4.7-0.9-6.5-2.8l-91.2-91.1c-1.9-1.9-2.8-3.7-2.8-6.5s0.9-4.7,2.8-6.5l91.2-91.3
		c1.9-1.9,3.7-2.8,6.5-2.8s4.7,0.9,6.5,2.8c1.9,1.9,2.8,3.7,2.8,6.5v54.9h392.8c2.8,0,4.7,0.9,6.5,2.8
		C642.1,184.6,643,186.4,643,189.2z M643,33.8c0,2.8-0.9,4.7-2.8,6.5L549,131.5c-1.9,1.9-3.7,2.8-6.5,2.8s-4.7-0.9-6.5-2.8
		c-1.9-1.9-2.8-3.7-2.8-6.5V70.1H140.3c-2.8,0-4.7-0.9-6.5-2.8c-1.9-1.9-2.8-3.7-2.8-6.5V5.9c0-2.8,0.9-4.7,2.8-6.5
		c1.9-1.9,3.7-2.8,6.5-2.8h392.8v-55c0-2.8,0.9-4.7,2.8-6.5c1.9-1.9,3.7-2.8,6.5-2.8c1.9,0,4.7,0.9,6.5,2.8l91.2,91.2
		C642.1,29.1,643,31,643,33.8z"/>
</g>
</svg>
